<svg xmlns="http://www.w3.org/2000/svg" width="900" height="420" viewBox="0 0 900 420"><rect width="100%" height="100%" fill="#fffdf8"/><g font-family="Arial, 'Malgun Gothic', sans-serif" font-size="18" fill="#252525" text-anchor="middle"><rect x="330" y="25" width="240" height="52" rx="12" fill="#d9ead3" stroke="#496b45"/><text x="450" y="57">메인 랜딩</text><rect x="70" y="150" width="220" height="52" rx="12" fill="#fce5cd" stroke="#a85d22"/><text x="180" y="182">회고 방식·제품군</text><rect x="340" y="150" width="220" height="52" rx="12" fill="#eadcf8" stroke="#704c9c"/><text x="450" y="182">브랜드 소개</text><rect x="610" y="150" width="220" height="52" rx="12" fill="#cfe2f3" stroke="#3d6d9e"/><text x="720" y="182">회고 시작</text><rect x="70" y="285" width="220" height="52" rx="12" fill="#fff2cc" stroke="#a18428"/><text x="180" y="317">예시·제품 상세</text><rect x="610" y="285" width="220" height="52" rx="12" fill="#d0e0e3" stroke="#437078"/><text x="720" y="317">미리보기·저장</text></g><g stroke="#777" stroke-width="2" fill="none"><path d="M450 77V120H180V150M450 120V150M450 120H720V150M180 202V285M720 202V285M290 311H610"/></g></svg>
